<svg width="831" height="388" viewBox="0 0 831 388" fill="none" xmlns="http://www.w3.org/2000/svg">
<g clip-path="url(#clip0_1001_2)">
<path d="M24 211H0V0H24V136L96.5 64.5H129.5L62 128L133.5 211H102.5L45 144L24 164V211Z" fill="white"/>
<path d="M217 215.5C241 215.1 259 195.667 265 186V220.5L188 303V220.5H166V384H188V329.5L206.5 310L270 384H301.5L222.5 293.5L289.5 220.5V211V64H265V83.5C235.5 62 241.5 64.5 213 62C184.5 59.5 142 91.5 146.5 144C151 196.5 187 216 217 215.5Z" fill="white"/>
<path d="M363 211H339V64.5H363V94C385 57.2 412.167 59 423 64.5V92.5C392.6 73.7 370.333 104.667 363 122.5V211Z" fill="white"/>
<path d="M423.5 368.5V346.5C421 352 399 368 380.5 368C350.076 368 338.833 343.5 337 330.5H431.5C431.5 227.5 315.5 247 315.5 326C317.5 371 357 388.5 381 388C400.2 387.6 417.333 374.833 423.5 368.5Z" fill="white"/>
<path d="M484.5 384H464.5V261.5H484.5V281.5C488.5 277 503 257.291 527.5 259C561.9 261.4 570.167 292.333 570 307.5V384H549.5V307.5C546 285.5 543 282.5 524 278.5C508.8 275.3 491.333 293.5 484.5 303V384Z" fill="white"/>
<path d="M445.5 87H464.5V211H484.5V64H445.5V87Z" fill="white"/>
<path d="M746 274.5C764 269.7 776.167 240.5 780 226.5H789.5V261.5H829V280.5H789.5C789.167 302.833 788.8 349.1 790 355.5C791.5 363.5 795.5 367.5 808.5 368.5C818.9 369.3 827.5 364.833 830.5 362.5V380.5C821 389 801 388 800 388C776.4 386.4 769.833 365.667 769.5 355.5V280.5H746V274.5Z" fill="white"/>
<circle cx="664" cy="324" r="55.5" stroke="white" stroke-width="17"/>
<circle cx="664" cy="324" r="23.5" stroke="white" stroke-width="17"/>
<circle cx="466" cy="26" r="16" fill="white"/>
</g>
<defs>
<clipPath id="clip0_1001_2">
<rect width="831" height="388" fill="white"/>
</clipPath>
</defs>
</svg>